<?xml version="1.0" ?><svg id="Layer_1" style="enable-background:new 0 0 128 128;" version="1.1" viewBox="0 0 128 128" xml:space="preserve" xmlns="http://www.w3.org/2000/svg" xmlns:xlink="http://www.w3.org/1999/xlink"><style type="text/css">
	.st0{fill:#FFFFFF;}
	.st1{fill:#E4E4E7;}
	.st2{fill:none;stroke:#444B54;stroke-width:6;stroke-linecap:round;stroke-linejoin:round;stroke-miterlimit:10;}
	.st3{fill:#AFAFBC;}
	.st4{fill:#EAD063;}
	.st5{fill:#242426;}
	.st6{fill:#F9DED4;}
	.st7{fill:#D8AC9E;}
	.st8{fill:#FFD0FF;}
	.st9{fill:#6575C1;}
	.st10{fill:#786F74;}
	.st11{fill:#9B9BA5;}
	.st12{fill:#FFD2EA;}
	.st13{fill:#B78BA4;}
	.st14{fill:#444B54;}
	.st15{fill:#5D5D8C;}
	.st16{fill:none;stroke:#FFFFFF;stroke-width:6;stroke-linecap:round;stroke-linejoin:round;stroke-miterlimit:10;}
</style><path d="M38,34.1c0.7,0,1.3-0.2,1.9-0.6C46.7,28,55.3,25,64,25c1.7,0,3-1.3,3-3s-1.3-3-3-3c-10,0-19.9,3.5-27.9,9.7  c-1.3,1-1.5,2.9-0.5,4.2C36.3,33.7,37.1,34.1,38,34.1z"/><path d="M6.9,34.3c0.6,0.6,1.3,0.9,2.1,0.9c0.8,0,1.5-0.3,2.1-0.9c1.2-1.2,1.2-3.1,0-4.2l-5-5C4.9,24,3,24,1.9,25.1  c-1.2,1.2-1.2,3.1,0,4.2L6.9,34.3z"/><path d="M26.8,54.2c0.6,0.6,1.3,0.9,2.1,0.9c0.8,0,1.5-0.3,2.1-0.9c1.2-1.2,1.2-3.1,0-4.2l-9.5-9.4c-1.2-1.2-3.1-1.2-4.2,0  s-1.2,3.1,0,4.2L26.8,54.2z"/><path d="M27.9,78.1c1.3,0,2.4-0.8,2.9-2.1c0.5-1.6-0.3-3.3-1.9-3.8L4.9,64.4c-1.6-0.5-3.3,0.3-3.8,1.9s0.3,3.3,1.9,3.8L27,77.9  C27.3,78,27.6,78.1,27.9,78.1z"/><path d="M126.1,25.1c-1.2-1.2-3.1-1.2-4.2,0l-10.4,10.4c-7-7.4-16.2-12.8-26.7-15.1c-1.6-0.4-3.2,0.6-3.6,2.3s0.6,3.2,2.3,3.6  c18.3,4.2,32.8,19.5,35.9,38c0.2,1.5,1.5,2.5,3,2.5c0.2,0,0.3,0,0.5,0c1.6-0.3,2.7-1.8,2.5-3.5c-1.4-8.6-4.9-16.5-9.9-23.1  l10.8-10.7C127.3,28.2,127.3,26.3,126.1,25.1z"/><path d="M100.1,78.1c0.3,0,0.6,0,0.9-0.1l8.7-2.9c1.6-0.5,2.4-2.2,1.9-3.8c-0.5-1.6-2.2-2.4-3.8-1.9l-8.7,2.9  c-1.6,0.5-2.4,2.2-1.9,3.8C97.6,77.3,98.8,78.1,100.1,78.1z"/><path d="M120.7,119.8c-2.4-5.2-7.6-8.8-13.7-8.8c-1.8,0-3.4,0.3-5,0.9c-0.1-5.5-4.5-9.9-10-9.9c-0.6,0-1.2,0.1-1.8,0.2  C92,99.2,93,95.7,93,92c0-6.5-3.1-12.3-8-15.9V51.8c0-1.7-1.3-3-3-3H46c-1.7,0-3,1.3-3,3v32.7c-5.4,2.4-9.2,7.6-9.9,13.7  c-1-0.1-2-0.2-3.1-0.2c-12.2,0-22,9.8-22,22c0,0.4,0,0.8,0,1.2c0.1,1.6,1.4,2.8,3,2.8h106.9C120,124,121.5,121.8,120.7,119.8z   M67.5,72.5C67.3,74,66,75.1,64.4,75c-0.1,0-0.3,0-0.4,0c-4.7,0-8.6,3.7-9,8.3c-0.1,0.8-0.5,1.6-1.1,2.1c-0.6,0.5-1.3,0.7-2.1,0.7  c-1.6-0.1-2.7-1.6-2.6-3.1l0-0.2c0.4-4.8,3-9.3,7.1-11.8c2.2-1.3,4.8-2,7.5-2c0.2,0,0.5,0,0.7,0C66.5,69.1,67.8,70.7,67.5,72.5  L67.5,72.5z"/></svg>